<?xml version="1.0" standalone="no"?>
<svg xmlns:svg="http://www.w3.org/2000/svg" xmlns="http://www.w3.org/2000/svg" version="1.1" width="1024" height="1024" viewBox="0 0 1024 1024">
<path d="M568.7198535 493.0681176q4.06151091 32.23005566-25.87575626 51.68600322t-57.05767974 3.07888717q-19.98001364-8.71259627-27.38244519-29.67523369t-0.26203257-41.99078317 26.59634651-29.67523368q18.40781633-9.23666234 37.07766524-6.15777519t32.75412172 18.14578283 14.08427192 34.52284416zM625.51549978 482.32476633q-7.14039808-54.76489126-57.84377842-83.91605889t-100.81718535-6.68184036q-32.23005566 14.34630541-51.42397065 45.26619542t-17.68722515 66.29434123q2.03075591 46.57636017 39.63248722 79.33048189t84.70215753 28.69260991q46.57636017-4.06151091 77.75828368-42.97340695t25.61372277-86.01232226zM747.88489699 204.96286692q-10.21928612-13.82223933-28.69260991-22.79686819t-29.67523369-11.26741736-36.35707495-6.41980778q-148.90023536-24.04152545-289.67744888 1.04813215-22.01076954 3.60295322-33.80225299 6.15777518t-28.16854473 11.26741738-25.61372275 22.01076955q15.32892915 14.34630541 38.91189603 23.25542589t37.6017313 11.26741734 44.80763773 5.89574171q116.67018058 14.87037147 229.27884939 0.52406607 32.23005566-4.06151091 45.79026152-6.15777517t37.07766523-11.00538479 38.38782995-23.77949198zM777.03606548 734.59700901q-4.06151091 13.29817325-7.92649762 39.17392953t-7.14039807 42.97340694-14.60833799 35.83300887-29.67523368 28.88913502q-44.02153908 24.56559062-96.95219956 36.61910753t-103.37200732 11.26741736-103.10997387-9.49869493q-23.51745937-4.06151091-41.72875059-9.23666233t-39.1739295-13.82223935-37.33969871-22.27280213-26.59634653-31.44395612q-12.77410719-49.13118215-29.15116761-149.42430142l3.07888715-8.18853019 9.23666233-4.585577q114.11535863 75.72752868 259.21611656 75.72752868t259.74018263-75.72752868q10.74335217 3.07888716 12.25004112 11.79148343t-2.55482108 23.05890166-4.06151092 18.93188241zM869.66472063 242.82663081q-13.29817325 85.48825709-56.79564628 335.20567781-2.55482108 15.32892915-13.82223932 28.69260992t-22.27280215 20.43857134-27.90651124 15.85299433q-128.98573008 64.46011041-312.21228449 45.06967124-126.88946582-13.82223933-201.63437073-71.14195169-7.66446414-6.15777519-13.03614068-13.56020585t-8.71259628-17.88375026-4.58557699-17.42519255-3.07888713-20.24204713-2.81685456-17.88375025q-4.58557699-25.61372276-13.56020587-76.7756608t-14.3463054-82.67140253-12.05351692-75.46549517-11.26741736-80.83717173q1.50668982-13.29817325 8.97462887-24.82762411t16.11502785-19.19391498 23.05890166-15.32892917 23.51745939-11.52945086 24.56559063-9.49869491q64.00155272-23.51745937 160.16765361-32.75412173 193.96990658-18.9318824 345.94902998 25.61372277 79.33048189 23.51745937 110.05384769 62.42935539 8.18853021 10.21928612 8.4505637 26.07228047t-2.81685455 27.64447867z" />
</svg>