<?xml version="1.0" standalone="no"?>
<svg xmlns:svg="http://www.w3.org/2000/svg" xmlns="http://www.w3.org/2000/svg" version="1.1" width="1024" height="1024" viewBox="0 0 1024 1024">
<path d="M253.05408173 713.57432206c-26.13778883 0-49.82993631-21.39935898-49.8299363-47.38429584s21.39935898-47.49893526 49.86814974-47.49893527c28.5834302 0 50.05921514 21.39935898 50.05921515 47.46072182s-23.76857435 47.38429583-49.86814973 47.38429585z m611.86882304-258.4354767c-5.15877412-37.90743614-28.65985618-68.78365482-59.61250084-92.4758023l-12.03713959-9.55328569-9.70613766 11.84607419c-18.87729164 21.39935898-26.36706768 59.34500856-24.0742792 87.69915988 2.29278849 21.47578585 9.17115398 42.79871885 21.17008014 59.38322201-9.70613766 4.96770869-21.7050647 9.55328568-30.95264467 14.40635406a202.14751917 202.14751917 0 0 1-64.19807784 9.55328569H72.57341471l-2.29278849 14.13886178a266.72772783 266.72772783 0 0 0 21.47578497 135.27452115l9.32400684 16.62271658v2.29278849c57.31971235 94.8832302 159.34880033 137.56730962 270.47261629 137.56730963 213.76431363 0 389.0862074-92.47580229 472.19979033-291.68090897 54.45372673 2.36921449 109.44243715-11.84607419 135.27452113-64.04522586l6.87836547-11.84607329-11.46394247-7.14585777c-30.95264466-18.87729164-73.3692318-21.39935898-108.90745345-11.84607418l-0.68783655 0.07642688z m-306.01083796-37.90743614h-92.78150712v92.47580229h92.857934V417.15498233l-0.07642688 0.11463944z m0-116.28259009h-92.78150712v92.47580231h92.857934V301.06345856l-0.07642688-0.11463943z m0-118.61359111h-92.78150712v92.47580229h92.857934v-92.47580229h-0.07642688z m113.49303045 234.8961812H580.15857383v92.47580229h92.4758023V417.15498233l-0.26749142 0.11463944z m-343.8418472 0H236.35493918v92.47580229h92.55222915V417.15498233l-0.3821317 0.11463944z m115.78581894 0h-91.71153975v92.47580229H444.88405268V417.15498233l-0.57319712 0.11463944z m-230.42524364 0H122.36513759v92.47580229h92.78150802V417.15498233l-1.14639426 0.11463944z m230.42524364-116.28259009h-91.71153975v92.47580231H444.88405268V301.06345856l-0.57319712-0.11463943z m-116.35901605 0H236.50779203v92.47580231H328.71610203V301.06345856l-0.61140966-0.11463943z" />
</svg>