<?xml version="1.0" standalone="no"?>
<svg xmlns:svg="http://www.w3.org/2000/svg" xmlns="http://www.w3.org/2000/svg" version="1.1" width="1024" height="1024" viewBox="0 0 1024 1024">
<path d="M512 962c248.526 0 450-201.474 450-450S760.526 62 512 62 62 263.474 62 512s201.474 450 450 450z m225.18-620.01H291.05v-45.36H737.18v45.36z m10.278 400.5H277.604v-45.864h140.526c-17.226-37.44-35.424-69.786-54.576-97.02l36.126-23.22h-63.288V395.252h357.012v181.134h-66.438l36.126 23.742c-17.064 37.44-34.812 69.606-53.28 96.48h137.646v45.9z m-104.148-211.716v-88.866H386.234v88.866h257.076z m-25.056 45.612h-209.34a1013.742 1013.742 0 0 1 61.434 120.24h85.428c26.19-40.608 47.016-80.694 62.478-120.24z" />
</svg>