<?xml version="1.0" standalone="no"?>
<svg xmlns:svg="http://www.w3.org/2000/svg" xmlns="http://www.w3.org/2000/svg" version="1.1" width="1024" height="1024" viewBox="0 0 1024 1024">
<path d="M119.3357169 417.76824047L512.10029408 921.10993065 81.63031764 608.67562798a34.65849841 34.65849841 0 0 1-12.40977407-38.18147714l50.08343516-152.75764939z m229.12060457 0h327.3196834L512.13203224 921.10993065zM250.25724262 114.28420951l98.19907885 303.48403096H119.3357169l98.19907883-303.48403096a17.39272642 17.39272642 0 0 1 32.72244689 0z m654.60762777 303.48403096l50.08343513 152.75764853a34.59502118 34.59502118 0 0 1-12.40977407 38.18147803l-430.46997643 312.43430269 392.76457719-503.34169105z m0 0h-229.12060456l98.19907884-303.48403096a17.39272642 17.39272642 0 0 1 32.72244686 0z" />
</svg>