<?xml version="1.0" standalone="no"?>
<svg xmlns:svg="http://www.w3.org/2000/svg" xmlns="http://www.w3.org/2000/svg" version="1.1" width="1024" height="1024" viewBox="0 0 1024 1024">
<path d="M512 55.88618118c-247.88270617 0-450.6958294 202.81312324-450.6958294 450.69582941s202.81312324 450.6958294 450.6958294 450.6958294 450.6958294-202.81312324 450.6958294-450.6958294c0-250.6995551-202.81312324-450.6958294-450.6958294-450.69582941z m-118.30765522 673.22689517h-98.58971267v-318.3039295h98.58971267v318.3039295z m-50.7032808-360.55666352c-30.98533827 0-56.33697867-25.35164041-56.33697867-56.33697867s25.35164041-56.33697867 56.33697867-56.33697867 56.33697867 25.35164041 56.33697866 56.33697867c2.81684893 28.16848934-22.53479148 56.33697867-56.33697866 56.33697867z m422.52734005 360.55666352h-98.58971268v-154.92669136c0-36.61903614 0-84.50546801-50.7032808-84.505468s-59.15382761 39.43588508-59.15382762 81.68861906v157.7435403h-98.58971267v-318.3039295h95.77286374v42.252734c14.08424467-25.35164041 45.06958293-50.7032808 92.95601481-50.70328081 101.40656162 0 118.30765522 64.78752547 118.30765522 152.10984241v174.6446339z" />
</svg>